<svg width="256" height="256" viewBox="0 0 256 256" fill="none" xmlns="http://www.w3.org/2000/svg">
<circle cx="128" cy="128" r="128" fill="#111827"/>
<path d="M64.6644 172.255C71.6624 172.867 77.1538 172.068 81.1386 169.858C85.1847 167.654 87.7101 164.677 88.7149 160.927C89.2412 158.963 89.3661 157.207 89.0896 155.66C88.8904 154.058 88.2375 152.509 87.1311 151.011C86.102 149.459 84.5817 147.864 82.5704 146.226C80.6364 144.534 78.1671 142.612 75.1625 140.461C72.5557 138.466 69.7807 136.396 66.8374 134.25C63.9101 132.045 61.3001 129.593 59.0075 126.895C56.7922 124.142 55.1409 121.043 54.0537 117.598C53.0279 114.158 53.129 110.146 54.3571 105.563C55.4416 101.515 57.2205 97.9246 59.6937 94.7905C62.1669 91.6565 65.1185 89.0821 68.5483 87.0673C72.0555 84.9984 75.9409 83.5108 80.2046 82.6046C84.5296 81.7037 89.0555 81.4601 93.7823 81.8736C97.3427 82.1851 100.784 82.943 104.105 84.1473C107.503 85.2975 110.414 86.8619 112.837 88.8404C115.259 90.8189 117.018 93.1658 118.112 95.881C119.207 98.5962 119.299 101.65 118.39 105.043C118.039 106.352 117.451 107.611 116.625 108.818C115.86 110.03 114.882 111.102 113.69 112.033C112.498 112.964 111.139 113.698 109.613 114.235C108.165 114.717 106.581 114.883 104.862 114.733C101.302 114.421 98.8865 113.235 97.6166 111.175C96.3468 109.115 96.0787 106.715 96.8123 103.977C97.2748 102.251 97.9111 100.814 98.7212 99.667C99.5472 98.46 100.463 97.5045 101.468 96.8006C102.551 96.0425 103.662 95.5305 104.801 95.2647C106.018 94.9447 107.179 94.833 108.284 94.9297L109.112 95.0022L109.16 94.8236C108.801 93.8176 108.151 92.8469 107.207 91.9116C106.28 90.9167 105.106 90.0221 103.686 89.2277C102.281 88.3738 100.652 87.6526 98.7998 87.0641C96.947 86.4756 94.9157 86.0847 92.7058 85.8913C89.4523 85.6067 86.5782 85.7816 84.0837 86.4162C81.5891 87.0508 79.4297 87.9584 77.6055 89.139C75.8587 90.2654 74.4404 91.5729 73.3504 93.0613C72.2605 94.5498 71.5242 96.0083 71.1414 97.4368C70.6789 99.163 70.5564 100.675 70.774 101.973C70.9915 103.272 71.6001 104.635 72.5998 106.062C73.6767 107.436 75.2129 108.971 77.2082 110.669C79.265 112.372 81.8559 114.426 84.9809 116.831C88.0628 118.928 91.2971 121.161 94.6835 123.528C98.1314 125.901 101.154 128.572 103.751 131.54C106.364 134.449 108.283 137.724 109.506 141.364C110.807 144.95 110.843 149.035 109.615 153.618C108.579 157.487 106.862 160.961 104.466 164.041C102.132 167.126 99.0576 169.69 95.2435 171.732C91.4908 173.779 86.9915 175.213 81.7456 176.034C76.5452 176.919 70.5994 177.069 63.9083 176.483C60.7162 176.204 57.4129 175.519 53.9984 174.428C50.5839 173.338 47.5653 171.825 44.9425 169.89C42.3357 167.895 40.3783 165.47 39.0702 162.614C37.7781 159.699 37.6583 156.277 38.711 152.349C39.1575 150.682 39.8644 149.099 40.8315 147.6C41.7987 146.101 42.9328 144.799 44.234 143.694C45.6125 142.536 47.1341 141.664 48.7987 141.078C50.4634 140.493 52.2472 140.284 54.1502 140.45C55.8076 140.595 57.2012 141.022 58.3308 141.73C59.4764 142.378 60.3513 143.216 60.9555 144.244C61.6371 145.217 62.056 146.35 62.2121 147.643C62.3683 148.936 62.2857 150.299 61.9643 151.733C61.5178 153.4 60.8121 154.861 59.8474 156.117C58.8986 157.313 57.8215 158.285 56.616 159.032C55.4105 159.78 54.0994 160.335 52.6827 160.698C51.3433 161.008 50.0598 161.108 48.8321 161.001C48.5865 160.98 48.3103 160.955 48.0033 160.929C47.7578 160.907 47.5202 160.856 47.2906 160.775L47.2428 160.953C47.4763 162.192 47.994 163.425 48.7959 164.653C49.5979 165.88 50.7079 167.013 52.1261 168.051C53.6057 169.094 55.3708 170.01 57.4212 170.799C59.549 171.533 61.9633 172.018 64.6644 172.255Z" fill="#F9FAFB"/>
<path d="M144.064 57.7636L145.044 54.103L164.815 53.8225L178.684 51.6549L179.648 54.3891L166.394 103.851L166.762 103.884C171.793 98.4758 176.559 94.8723 181.062 93.0732C185.642 91.22 190.725 90.5378 196.312 91.0265C197.969 91.1715 199.587 91.4653 201.164 91.9079C202.742 92.3506 204.455 93.1096 206.303 94.185C208.167 95.2009 209.805 96.4712 211.219 97.996C212.693 99.5261 213.994 101.589 215.12 104.185C216.247 106.781 217.001 109.711 217.383 112.973C217.827 116.24 217.788 120.257 217.264 125.024C216.818 129.736 215.846 134.89 214.346 140.485C212.56 147.151 210.165 153.277 207.161 158.862C204.172 164.388 200.599 169.284 196.44 173.55C192.359 177.761 187.581 180.937 182.107 183.078C176.694 185.224 170.919 186.028 164.78 185.491C161.343 185.19 158.02 184.108 154.813 182.243C151.59 180.438 149.174 177.73 147.567 174.117L126.677 180.33L122.902 180L155.389 58.7545L144.064 57.7636ZM150.844 161.885C149.712 166.111 150.195 170.052 152.294 173.708C154.393 177.364 157.407 179.363 161.335 179.707C163.729 179.917 166.021 179.569 168.212 178.664C170.402 177.759 172.326 176.557 173.984 175.057C175.72 173.503 177.368 171.455 178.929 168.911C180.491 166.367 181.789 163.983 182.825 161.759C183.938 159.48 185.056 156.715 186.179 153.463C187.317 150.151 188.204 147.427 188.84 145.289C189.475 143.152 190.2 140.565 191.013 137.53C193.677 127.59 195.084 119.641 195.235 113.685C195.463 107.674 194.752 103.53 193.1 101.254C191.448 98.9771 188.873 97.6857 185.374 97.3796C180.893 96.9876 176.318 99.0545 171.65 103.58C166.998 108.047 163.89 113.196 162.327 119.029L150.844 161.885Z" fill="#F9FAFB"/>
</svg>
