<svg width="888" height="174" viewBox="0 0 888 174" fill="none" xmlns="http://www.w3.org/2000/svg">
<path d="M41.0464 122.402C49.8815 122.402 56.5407 120.424 61.0242 116.468C65.6395 112.38 67.9472 107.171 67.9472 100.842C67.9472 95.4354 66.167 90.9519 62.6066 87.3915C59.1781 83.8311 53.7056 80.996 46.1892 78.8862L28.9807 73.7434C23.4423 72.0291 18.6292 69.8533 14.5413 67.216C10.4535 64.4468 7.28866 61.0842 5.04693 57.1282C2.93707 53.0404 1.88214 48.2932 1.88214 42.8867C1.88214 32.7329 5.5744 24.821 12.9589 19.1507C20.3434 13.3486 30.1675 10.4475 42.431 10.4475C49.5518 10.4475 55.8814 11.2387 61.4198 12.8211C67.09 14.2717 71.5076 16.1837 74.6723 18.5573C77.969 20.9309 79.6173 23.4364 79.6173 26.0737C79.6173 27.788 79.1558 29.3704 78.2327 30.8209C77.3097 32.1395 76.1229 33.1945 74.6723 33.9857C71.3757 31.3483 66.8922 29.0407 61.222 27.0627C55.6836 25.0847 49.6177 24.0957 43.0244 24.0957C35.3762 24.0957 29.3103 25.81 24.8269 29.2385C20.3434 32.5351 18.1017 37.0845 18.1017 42.8867C18.1017 47.502 19.6841 51.2602 22.8489 54.1612C26.1455 57.0623 31.4202 59.5677 38.6728 61.6776L50.7386 65.238C61.1561 68.139 69.3318 72.3588 75.2657 77.8972C81.3316 83.4355 84.3645 91.0838 84.3645 100.842C84.3645 111.259 80.5404 119.699 72.8921 126.16C65.3758 132.622 54.7605 135.852 41.0464 135.852C33.0026 135.852 25.9477 134.995 19.8819 133.281C13.9479 131.435 9.26666 129.193 5.83813 126.556C2.54147 123.787 0.893146 121.083 0.893146 118.446C0.893146 116.204 1.55248 114.358 2.87114 112.908C4.32167 111.325 5.97 110.204 7.81613 109.545C10.8491 112.446 15.1347 115.347 20.6731 118.248C26.2115 121.017 33.0026 122.402 41.0464 122.402ZM123.699 112.908C121.457 108.688 118.754 103.018 115.589 95.8969C112.424 88.6443 109.128 80.6004 105.699 71.7654C102.402 62.7985 99.2376 53.6997 96.2047 44.469C97.1277 43.1504 98.3145 42.0955 99.7651 41.3043C101.347 40.5131 102.996 40.1175 104.71 40.1175C106.952 40.1175 108.798 40.7109 110.248 41.8977C111.699 43.0845 112.886 45.0624 113.809 47.8316C117.765 58.9084 121.919 69.9192 126.27 80.8641C130.622 91.8091 135.435 103.15 140.71 114.886H141.501C144.27 109.347 147.171 102.424 150.204 94.1167C153.237 85.8091 156.138 77.04 158.907 67.8094C161.676 58.5787 163.984 49.8756 165.83 41.6999C166.753 41.3043 167.742 40.9746 168.797 40.7109C169.984 40.3153 171.237 40.1175 172.555 40.1175C174.797 40.1175 176.643 40.7109 178.094 41.8977C179.544 42.9526 180.269 44.6009 180.269 46.8426C180.269 48.9525 179.676 52.5129 178.489 57.5238C177.302 62.4029 175.654 68.1391 173.544 74.7324C171.566 81.1938 169.193 88.1168 166.423 95.5013C163.786 102.754 160.885 109.941 157.72 117.061C154.687 124.05 151.589 130.38 148.424 136.05C142.358 147.259 136.819 155.83 131.809 161.764C126.798 167.83 122.182 170.863 117.963 170.863C114.93 170.863 112.556 170.072 110.842 168.489C109.259 166.907 108.27 165.061 107.875 162.951C110.776 160.445 114.007 157.083 117.567 152.863C121.259 148.775 124.754 144.292 128.05 139.413C131.479 134.666 134.248 130.116 136.358 125.765C134.116 125.105 132.006 123.918 130.028 122.204C128.182 120.49 126.072 117.391 123.699 112.908ZM274.308 69.9852V92.7321H258.484V71.172C258.484 64.7105 256.572 59.9633 252.747 56.9304C249.055 53.8975 244.11 52.381 237.913 52.381C233.825 52.381 229.869 53.0404 226.045 54.359C222.22 55.6777 218.99 57.1941 216.352 58.9084V92.7321H200.528V59.6996C200.528 57.0623 201.056 54.8206 202.111 52.9744C203.298 51.1283 205.276 49.3481 208.045 47.6338C211.605 45.3921 216.089 43.4801 221.495 41.8977C227.034 40.1834 232.572 39.3263 238.11 39.3263C244.836 39.3263 250.769 40.3812 255.912 42.4911C261.055 44.469 264.879 47.2382 267.385 50.7986C268.176 51.5898 268.835 52.3151 269.363 52.9744C269.89 53.6338 270.418 54.4909 270.945 55.5458C271.868 57.1282 272.659 59.1721 273.319 61.6776C273.978 64.1831 274.308 66.9523 274.308 69.9852ZM332.263 70.3808V92.7321H316.439V71.172C316.439 64.7105 314.593 59.9633 310.901 56.9304C307.208 53.8975 302.263 52.381 296.066 52.381C291.45 52.381 286.967 53.37 282.615 55.348C278.395 57.1941 274.571 59.8974 271.143 63.4578L264.813 51.9854C268.242 48.5569 272.725 45.5899 278.264 43.0844C283.802 40.579 290.132 39.3263 297.252 39.3263C304.373 39.3263 310.505 40.4471 315.648 42.6888C320.922 44.9306 325.01 48.3591 327.911 52.9744C330.812 57.5897 332.263 63.3919 332.263 70.3808ZM200.528 82.2487H216.352V132.885C215.693 133.149 214.704 133.413 213.385 133.677C212.067 134.072 210.616 134.27 209.034 134.27C206.265 134.27 204.155 133.743 202.704 132.688C201.254 131.501 200.528 129.655 200.528 127.149V82.2487ZM258.484 82.2487H274.308V132.885C273.648 133.149 272.593 133.413 271.143 133.677C269.824 134.072 268.44 134.27 266.989 134.27C264.088 134.27 261.912 133.743 260.462 132.688C259.143 131.501 258.484 129.655 258.484 127.149V82.2487ZM316.439 82.2487H332.263V132.885C331.604 133.149 330.549 133.413 329.098 133.677C327.779 134.072 326.395 134.27 324.944 134.27C322.043 134.27 319.867 133.743 318.417 132.688C317.098 131.501 316.439 129.655 316.439 127.149V82.2487ZM375.266 59.8974V47.0404H417.199C417.595 47.5679 417.99 48.425 418.386 49.6118C418.782 50.6668 418.979 51.9195 418.979 53.37C418.979 55.4799 418.452 57.1282 417.397 58.315C416.342 59.3699 414.826 59.8974 412.848 59.8974H375.266ZM378.035 34.5791V57.7216H362.409V33.7879C362.409 26.0078 363.793 19.7441 366.563 14.9969C369.464 10.1179 373.551 6.55748 378.826 4.31576C384.233 1.94217 390.628 0.755369 398.013 0.755369C405.529 0.755369 411.397 1.74436 415.617 3.72236C419.968 5.70035 422.144 8.13988 422.144 11.0409C422.144 12.4915 421.814 13.8101 421.155 14.9969C420.628 16.1837 419.836 17.3046 418.782 18.3595C416.408 17.0409 413.441 15.9859 409.881 15.1947C406.32 14.2717 402.892 13.8101 399.595 13.8101C391.551 13.8101 385.947 15.4585 382.782 18.7551C379.617 22.0518 378.035 27.3264 378.035 34.5791ZM362.409 49.0184H378.233V132.885C377.573 133.149 376.584 133.413 375.266 133.677C373.947 134.072 372.496 134.27 370.914 134.27C368.145 134.27 366.035 133.743 364.585 132.688C363.134 131.501 362.409 129.655 362.409 127.149V49.0184ZM519.885 87.5893C519.885 97.3474 518.039 105.853 514.347 113.105C510.654 120.358 505.446 125.962 498.72 129.918C491.995 133.874 484.083 135.852 474.984 135.852C465.886 135.852 457.908 133.874 451.051 129.918C444.326 125.962 439.117 120.358 435.425 113.105C431.732 105.853 429.886 97.3474 429.886 87.5893C429.886 77.6994 431.732 69.194 435.425 62.0732C439.249 54.8206 444.523 49.2162 451.249 45.2602C458.106 41.3043 466.018 39.3263 474.984 39.3263C483.951 39.3263 491.797 41.3043 498.523 45.2602C505.248 49.2162 510.456 54.8206 514.149 62.0732C517.973 69.194 519.885 77.6994 519.885 87.5893ZM474.984 52.381C466.149 52.381 459.095 55.5458 453.82 61.8754C448.677 68.0731 446.106 76.6444 446.106 87.5893C446.106 98.6661 448.611 107.303 453.622 113.501C458.765 119.699 465.886 122.798 474.984 122.798C483.951 122.798 490.94 119.699 495.951 113.501C501.094 107.171 503.665 98.5342 503.665 87.5893C503.665 76.6444 501.094 68.0731 495.951 61.8754C490.94 55.5458 483.951 52.381 474.984 52.381ZM585.106 39.3263C593.282 39.3263 600.6 41.1065 607.062 44.6668C613.655 48.0954 618.798 53.37 622.49 60.4908C626.314 67.6116 628.226 76.6444 628.226 87.5893C628.226 98.6661 626.248 107.765 622.292 114.886C618.468 122.006 613.128 127.281 606.271 130.71C599.414 134.138 591.436 135.852 582.337 135.852C575.876 135.852 570.007 135.061 564.733 133.479C559.59 131.896 555.37 130.182 552.074 128.336C549.304 126.49 547.392 124.776 546.337 123.193C545.283 121.611 544.755 119.435 544.755 116.666V50.7986H560.579V116.666C562.557 118.116 565.458 119.501 569.282 120.82C573.106 122.138 577.458 122.798 582.337 122.798C591.304 122.798 598.491 119.963 603.897 114.292C609.436 108.622 612.205 99.721 612.205 87.5893C612.205 75.3258 609.436 66.4248 603.897 60.8864C598.359 55.2162 591.304 52.381 582.733 52.381C577.458 52.381 572.777 53.436 568.689 55.5458C564.601 57.5238 561.238 59.8315 558.601 62.4688L555.634 49.6118C558.535 47.3701 562.425 45.1284 567.304 42.8867C572.183 40.5131 578.117 39.3263 585.106 39.3263ZM560.579 53.9634H544.755V5.10696C545.414 4.84322 546.403 4.57949 547.722 4.31576C549.173 3.92016 550.689 3.72236 552.271 3.72236C555.041 3.72236 557.085 4.31576 558.403 5.50255C559.854 6.55749 560.579 8.33768 560.579 10.8431V53.9634ZM654.5 81.062L670.324 83.4355V132.885C669.664 133.149 668.675 133.413 667.357 133.677C666.038 134.072 664.588 134.27 663.005 134.27C660.236 134.27 658.126 133.743 656.676 132.688C655.225 131.501 654.5 129.655 654.5 127.149V81.062ZM670.324 90.9519L654.5 88.7761V5.10696C655.159 4.84322 656.148 4.57949 657.467 4.31576C658.917 3.92016 660.368 3.72236 661.818 3.72236C664.719 3.72236 666.829 4.31576 668.148 5.50255C669.599 6.55749 670.324 8.33768 670.324 10.8431V90.9519ZM786.451 87.5893C786.451 97.3474 784.604 105.853 780.912 113.105C777.22 120.358 772.011 125.962 765.286 129.918C758.561 133.874 750.649 135.852 741.55 135.852C732.451 135.852 724.473 133.874 717.616 129.918C710.891 125.962 705.682 120.358 701.99 113.105C698.298 105.853 696.452 97.3474 696.452 87.5893C696.452 77.6994 698.298 69.194 701.99 62.0732C705.814 54.8206 711.089 49.2162 717.814 45.2602C724.671 41.3043 732.583 39.3263 741.55 39.3263C750.517 39.3263 758.363 41.3043 765.088 45.2602C771.813 49.2162 777.022 54.8206 780.714 62.0732C784.539 69.194 786.451 77.6994 786.451 87.5893ZM741.55 52.381C732.715 52.381 725.66 55.5458 720.386 61.8754C715.243 68.0731 712.671 76.6444 712.671 87.5893C712.671 98.6661 715.177 107.303 720.188 113.501C725.331 119.699 732.451 122.798 741.55 122.798C750.517 122.798 757.506 119.699 762.517 113.501C767.66 107.171 770.231 98.5342 770.231 87.5893C770.231 76.6444 767.66 68.0731 762.517 61.8754C757.506 55.5458 750.517 52.381 741.55 52.381ZM848.903 130.512C841.254 130.512 834.2 129.061 827.738 126.16C821.277 123.127 816.068 118.248 812.112 111.523C808.156 104.798 806.178 95.8969 806.178 84.8201C806.178 74.7983 808.09 66.4248 811.914 59.6996C815.87 52.9744 821.277 47.8976 828.134 44.469C834.991 41.0405 842.837 39.3263 851.672 39.3263C857.738 39.3263 863.276 40.1175 868.287 41.6999C873.43 43.1504 877.715 44.9965 881.144 47.2382C883.122 48.5569 884.704 50.0734 885.891 51.7876C887.21 53.37 887.869 55.348 887.869 57.7216V118.842H872.045V57.9194C869.803 56.4689 866.968 55.2162 863.54 54.1612C860.243 52.9744 856.287 52.381 851.672 52.381C842.837 52.381 835.716 55.0843 830.31 60.4908C824.903 65.8973 822.2 73.9412 822.2 84.6223C822.2 96.4903 824.903 104.93 830.31 109.941C835.848 114.952 842.639 117.457 850.683 117.457C856.485 117.457 861.166 116.468 864.727 114.49C868.287 112.512 871.122 110.336 873.232 107.963L874.023 122.006C872.045 124.116 868.88 126.094 864.529 127.94C860.309 129.655 855.1 130.512 848.903 130.512ZM872.045 136.248V115.479H887.869V137.237C887.869 145.94 885.957 152.929 882.133 158.204C878.441 163.478 873.298 167.303 866.705 169.676C860.243 172.05 852.925 173.236 844.749 173.236C838.156 173.236 832.485 172.511 827.738 171.061C822.991 169.61 819.76 168.423 818.046 167.5C814.09 165.259 812.112 162.423 812.112 158.995C812.112 157.149 812.508 155.566 813.299 154.248C814.222 153.061 815.343 152.138 816.661 151.479C819.431 153.588 823.321 155.5 828.332 157.215C833.474 159.061 838.947 159.984 844.749 159.984C853.584 159.984 860.309 158.072 864.924 154.248C869.672 150.424 872.045 144.424 872.045 136.248Z" fill="#111827"/>
</svg>
