<svg width="1297" height="257" viewBox="0 0 1297 257" fill="none" xmlns="http://www.w3.org/2000/svg">
<circle cx="128.712" cy="128.283" r="128" fill="#111827"/>
<path d="M65.3763 172.538C72.3744 173.15 77.8658 172.351 81.8505 170.141C85.8966 167.937 88.422 164.96 89.4268 161.21C89.9531 159.245 90.078 157.49 89.8015 155.943C89.6023 154.341 88.9494 152.792 87.843 151.294C86.8139 149.742 85.2936 148.147 83.2823 146.509C81.3484 144.817 78.8791 142.895 75.8744 140.744C73.2676 138.749 70.4926 136.679 67.5493 134.533C64.622 132.328 62.0121 129.876 59.7194 127.178C57.5041 124.425 55.8528 121.326 54.7656 117.881C53.7398 114.441 53.8409 110.429 55.069 105.846C56.1535 101.798 57.9324 98.2075 60.4056 95.0735C62.8788 91.9394 65.8304 89.365 69.2602 87.3503C72.7674 85.2814 76.6528 83.7938 80.9165 82.8876C85.2415 81.9867 89.7675 81.743 94.4942 82.1566C98.0547 82.4681 101.495 83.226 104.817 84.4303C108.215 85.5805 111.126 87.1448 113.548 89.1234C115.971 91.1019 117.73 93.4488 118.824 96.1639C119.918 98.8791 120.011 101.933 119.102 105.326C118.751 106.635 118.163 107.893 117.337 109.1C116.572 110.313 115.594 111.385 114.402 112.316C113.21 113.247 111.851 113.981 110.325 114.518C108.876 115 107.293 115.166 105.574 115.016C102.014 114.704 99.5984 113.518 98.3285 111.458C97.0587 109.398 96.7906 106.998 97.5242 104.26C97.9867 102.534 98.623 101.097 99.4331 99.95C100.259 98.743 101.175 97.7875 102.18 97.0835C103.263 96.3254 104.374 95.8135 105.513 95.5476C106.73 95.2276 107.89 95.116 108.995 95.2127L109.824 95.2852L109.872 95.1066C109.513 94.1006 108.862 93.1299 107.919 92.1945C106.992 91.1997 105.818 90.305 104.398 89.5107C102.993 88.6568 101.364 87.9356 99.5117 87.3471C97.6589 86.7585 95.6276 86.3676 93.4177 86.1743C90.1642 85.8896 87.2902 86.0646 84.7956 86.6992C82.301 87.3338 80.1416 88.2414 78.3175 89.4219C76.5706 90.5484 75.1523 91.8558 74.0623 93.3443C72.9724 94.8328 72.2361 96.2913 71.8533 97.7198C71.3908 99.4459 71.2683 100.958 71.4859 102.256C71.7034 103.555 72.312 104.918 73.3117 106.345C74.3886 107.719 75.9248 109.254 77.9202 110.952C79.9769 112.655 82.5678 114.709 85.6928 117.114C88.7747 119.211 92.009 121.444 95.3955 123.811C98.8433 126.184 101.866 128.855 104.463 131.823C107.076 134.732 108.995 138.007 110.218 141.647C111.519 145.233 111.555 149.318 110.327 153.901C109.291 157.77 107.574 161.244 105.178 164.324C102.844 167.409 99.7695 169.973 95.9554 172.015C92.2027 174.062 87.7034 175.496 82.4576 176.316C77.2571 177.202 71.3114 177.352 64.6202 176.766C61.4281 176.487 58.1248 175.802 54.7103 174.711C51.2958 173.621 48.2772 172.108 45.6545 170.173C43.0476 168.178 41.0902 165.753 39.7821 162.897C38.49 159.982 38.3703 156.56 39.4229 152.632C39.8694 150.965 40.5763 149.382 41.5434 147.883C42.5106 146.384 43.6447 145.082 44.9459 143.977C46.3244 142.819 47.846 141.947 49.5106 141.361C51.1753 140.776 52.9591 140.567 54.8621 140.733C56.5196 140.878 57.9131 141.304 59.0427 142.012C60.1883 142.661 61.0632 143.499 61.6675 144.527C62.349 145.5 62.7679 146.633 62.9241 147.926C63.0802 149.219 62.9976 150.582 62.6762 152.016C62.2297 153.683 61.524 155.144 60.5593 156.4C59.6105 157.596 58.5334 158.568 57.3279 159.315C56.1224 160.063 54.8113 160.618 53.3946 160.981C52.0553 161.291 50.7717 161.391 49.544 161.284C49.2984 161.263 49.0222 161.238 48.7152 161.212C48.4697 161.19 48.2321 161.139 48.0025 161.058L47.9547 161.236C48.1882 162.475 48.7059 163.708 49.5078 164.936C50.3098 166.163 51.4198 167.296 52.8381 168.334C54.3177 169.377 56.0827 170.293 58.1331 171.082C60.2609 171.816 62.6753 172.301 65.3763 172.538Z" fill="#F9FAFB"/>
<path d="M144.775 58.0465L145.756 54.386L165.527 54.1055L179.396 51.9379L180.359 54.6721L167.106 104.134L167.474 104.167C172.504 98.7587 177.271 95.1552 181.774 93.3562C186.354 91.503 191.437 90.8207 197.024 91.3095C198.681 91.4545 200.299 91.7483 201.876 92.1909C203.454 92.6335 205.167 93.3925 207.015 94.468C208.879 95.4839 210.517 96.7542 211.931 98.2789C213.405 99.809 214.706 101.872 215.832 104.468C216.958 107.064 217.713 109.994 218.095 113.256C218.539 116.523 218.499 120.54 217.976 125.307C217.53 130.019 216.558 135.173 215.058 140.768C213.272 147.434 210.877 153.56 207.872 159.145C204.884 164.671 201.311 169.567 197.152 173.833C193.071 178.044 188.293 181.22 182.819 183.361C177.406 185.507 171.631 186.311 165.492 185.774C162.054 185.473 158.732 184.391 155.525 182.526C152.302 180.721 149.886 178.012 148.279 174.4L127.389 180.613L123.614 180.283L156.101 59.0374L144.775 58.0465ZM151.556 162.168C150.424 166.394 150.907 170.335 153.006 173.991C155.105 177.647 158.118 179.646 162.047 179.99C164.441 180.2 166.733 179.852 168.923 178.947C171.113 178.042 173.038 176.84 174.696 175.34C176.432 173.786 178.08 171.738 179.641 169.194C181.202 166.65 182.501 164.266 183.537 162.042C184.65 159.763 185.768 156.998 186.89 153.746C188.029 150.434 188.916 147.71 189.552 145.572C190.187 143.435 190.912 140.848 191.725 137.813C194.389 127.873 195.796 119.924 195.947 113.968C196.175 107.957 195.464 103.813 193.812 101.537C192.16 99.2601 189.585 97.9687 186.086 97.6626C181.605 97.2705 177.03 99.3374 172.362 103.863C167.71 108.33 164.602 113.479 163.039 119.312L151.556 162.168Z" fill="#F9FAFB"/>
<path d="M371.046 175.904C379.881 175.904 386.541 173.926 391.024 169.97C395.64 165.882 397.947 160.673 397.947 154.344C397.947 148.937 396.167 144.454 392.607 140.893C389.178 137.333 383.706 134.498 376.189 132.388L358.981 127.245C353.442 125.531 348.629 123.355 344.541 120.718C340.453 117.949 337.289 114.586 335.047 110.63C332.937 106.542 331.882 101.795 331.882 96.3886C331.882 86.2349 335.574 78.3229 342.959 72.6527C350.343 66.8505 360.167 63.9495 372.431 63.9495C379.552 63.9495 385.881 64.7407 391.42 66.3231C397.09 67.7736 401.508 69.6857 404.672 72.0593C407.969 74.4329 409.617 76.9383 409.617 79.5756C409.617 81.2899 409.156 82.8723 408.233 84.3228C407.31 85.6415 406.123 86.6964 404.672 87.4876C401.376 84.8503 396.892 82.5426 391.222 80.5647C385.684 78.5867 379.618 77.5977 373.024 77.5977C365.376 77.5977 359.31 79.3119 354.827 82.7404C350.343 86.0371 348.102 90.5865 348.102 96.3886C348.102 101.004 349.684 104.762 352.849 107.663C356.146 110.564 361.42 113.07 368.673 115.18L380.739 118.74C391.156 121.641 399.332 125.861 405.266 131.399C411.332 136.937 414.365 144.586 414.365 154.344C414.365 164.761 410.54 173.201 402.892 179.662C395.376 186.124 384.761 189.354 371.046 189.354C363.003 189.354 355.948 188.497 349.882 186.783C343.948 184.937 339.267 182.695 335.838 180.058C332.541 177.289 330.893 174.585 330.893 171.948C330.893 169.706 331.552 167.86 332.871 166.41C334.322 164.827 335.97 163.706 337.816 163.047C340.849 165.948 345.135 168.849 350.673 171.75C356.211 174.519 363.003 175.904 371.046 175.904ZM453.699 166.41C451.457 162.19 448.754 156.52 445.589 149.399C442.424 142.146 439.128 134.102 435.699 125.267C432.402 116.3 429.238 107.202 426.205 97.971C427.128 96.6523 428.315 95.5974 429.765 94.8062C431.347 94.015 432.996 93.6194 434.71 93.6194C436.952 93.6194 438.798 94.2128 440.248 95.3996C441.699 96.5864 442.886 98.5644 443.809 101.334C447.765 112.41 451.919 123.421 456.27 134.366C460.622 145.311 465.435 156.652 470.71 168.388H471.501C474.27 162.849 477.171 155.926 480.204 147.619C483.237 139.311 486.138 130.542 488.907 121.311C491.676 112.081 493.984 103.378 495.83 95.2018C496.753 94.8062 497.742 94.4765 498.797 94.2128C499.984 93.8172 501.237 93.6194 502.555 93.6194C504.797 93.6194 506.643 94.2128 508.094 95.3996C509.544 96.4545 510.269 98.1029 510.269 100.345C510.269 102.454 509.676 106.015 508.489 111.026C507.302 115.905 505.654 121.641 503.544 128.234C501.566 134.696 499.193 141.619 496.423 149.003C493.786 156.256 490.885 163.443 487.72 170.563C484.687 177.552 481.589 183.882 478.424 189.552C472.358 200.761 466.819 209.332 461.809 215.266C456.798 221.332 452.182 224.365 447.963 224.365C444.93 224.365 442.556 223.574 440.842 221.991C439.259 220.409 438.27 218.563 437.875 216.453C440.776 213.947 444.007 210.585 447.567 206.365C451.259 202.277 454.754 197.794 458.05 192.915C461.479 188.168 464.248 183.618 466.358 179.267C464.116 178.607 462.006 177.42 460.028 175.706C458.182 173.992 456.072 170.893 453.699 166.41ZM604.308 123.487V146.234H588.484V124.674C588.484 118.212 586.572 113.465 582.747 110.432C579.055 107.399 574.11 105.883 567.913 105.883C563.825 105.883 559.869 106.542 556.045 107.861C552.22 109.18 548.99 110.696 546.352 112.41V146.234H530.528V113.202C530.528 110.564 531.056 108.323 532.111 106.476C533.298 104.63 535.276 102.85 538.045 101.136C541.605 98.8941 546.089 96.982 551.495 95.3996C557.034 93.6853 562.572 92.8282 568.11 92.8282C574.836 92.8282 580.769 93.8831 585.912 95.993C591.055 97.971 594.879 100.74 597.385 104.301C598.176 105.092 598.835 105.817 599.363 106.476C599.89 107.136 600.418 107.993 600.945 109.048C601.868 110.63 602.659 112.674 603.319 115.18C603.978 117.685 604.308 120.454 604.308 123.487ZM662.263 123.883V146.234H646.439V124.674C646.439 118.212 644.593 113.465 640.901 110.432C637.208 107.399 632.263 105.883 626.066 105.883C621.45 105.883 616.967 106.872 612.615 108.85C608.395 110.696 604.571 113.399 601.143 116.96L594.813 105.487C598.242 102.059 602.725 99.0919 608.264 96.5864C613.802 94.0809 620.132 92.8282 627.252 92.8282C634.373 92.8282 640.505 93.9491 645.648 96.1908C650.922 98.4325 655.01 101.861 657.911 106.476C660.812 111.092 662.263 116.894 662.263 123.883ZM530.528 135.751H546.352V186.387C545.693 186.651 544.704 186.915 543.385 187.179C542.067 187.574 540.616 187.772 539.034 187.772C536.265 187.772 534.155 187.244 532.704 186.19C531.254 185.003 530.528 183.157 530.528 180.651V135.751ZM588.484 135.751H604.308V186.387C603.648 186.651 602.593 186.915 601.143 187.179C599.824 187.574 598.44 187.772 596.989 187.772C594.088 187.772 591.912 187.244 590.462 186.19C589.143 185.003 588.484 183.157 588.484 180.651V135.751ZM646.439 135.751H662.263V186.387C661.604 186.651 660.549 186.915 659.098 187.179C657.779 187.574 656.395 187.772 654.944 187.772C652.043 187.772 649.867 187.244 648.417 186.19C647.098 185.003 646.439 183.157 646.439 180.651V135.751ZM705.266 113.399V100.542H747.199C747.595 101.07 747.99 101.927 748.386 103.114C748.782 104.169 748.979 105.421 748.979 106.872C748.979 108.982 748.452 110.63 747.397 111.817C746.342 112.872 744.826 113.399 742.848 113.399H705.266ZM708.035 88.081V111.224H692.409V87.2898C692.409 79.5097 693.793 73.2461 696.563 68.4989C699.464 63.6198 703.551 60.0594 708.826 57.8177C714.233 55.4441 720.628 54.2573 728.013 54.2573C735.529 54.2573 741.397 55.2463 745.617 57.2243C749.968 59.2023 752.144 61.6418 752.144 64.5429C752.144 65.9934 751.814 67.3121 751.155 68.4989C750.628 69.6857 749.836 70.8065 748.782 71.8615C746.408 70.5428 743.441 69.4879 739.881 68.6967C736.32 67.7736 732.892 67.3121 729.595 67.3121C721.551 67.3121 715.947 68.9604 712.782 72.2571C709.617 75.5537 708.035 80.8284 708.035 88.081ZM692.409 102.52H708.233V186.387C707.573 186.651 706.584 186.915 705.266 187.179C703.947 187.574 702.496 187.772 700.914 187.772C698.145 187.772 696.035 187.244 694.585 186.19C693.134 185.003 692.409 183.157 692.409 180.651V102.52ZM849.885 141.091C849.885 150.849 848.039 159.355 844.347 166.607C840.654 173.86 835.446 179.464 828.72 183.42C821.995 187.376 814.083 189.354 804.984 189.354C795.886 189.354 787.908 187.376 781.051 183.42C774.326 179.464 769.117 173.86 765.425 166.607C761.732 159.355 759.886 150.849 759.886 141.091C759.886 131.201 761.732 122.696 765.425 115.575C769.249 108.323 774.523 102.718 781.249 98.7622C788.106 94.8062 796.018 92.8282 804.984 92.8282C813.951 92.8282 821.797 94.8062 828.523 98.7622C835.248 102.718 840.456 108.323 844.149 115.575C847.973 122.696 849.885 131.201 849.885 141.091ZM804.984 105.883C796.149 105.883 789.095 109.048 783.82 115.377C778.677 121.575 776.106 130.146 776.106 141.091C776.106 152.168 778.611 160.805 783.622 167.003C788.765 173.201 795.886 176.3 804.984 176.3C813.951 176.3 820.94 173.201 825.951 167.003C831.094 160.673 833.665 152.036 833.665 141.091C833.665 130.146 831.094 121.575 825.951 115.377C820.94 109.048 813.951 105.883 804.984 105.883ZM915.106 92.8282C923.282 92.8282 930.6 94.6084 937.062 98.1688C943.655 101.597 948.798 106.872 952.49 113.993C956.314 121.114 958.226 130.146 958.226 141.091C958.226 152.168 956.248 161.267 952.292 168.388C948.468 175.508 943.128 180.783 936.271 184.212C929.414 187.64 921.436 189.354 912.337 189.354C905.876 189.354 900.007 188.563 894.733 186.981C889.59 185.398 885.37 183.684 882.074 181.838C879.304 179.992 877.392 178.278 876.337 176.695C875.283 175.113 874.755 172.937 874.755 170.168V104.301H890.579V170.168C892.557 171.618 895.458 173.003 899.282 174.322C903.106 175.64 907.458 176.3 912.337 176.3C921.304 176.3 928.491 173.464 933.897 167.794C939.436 162.124 942.205 153.223 942.205 141.091C942.205 128.828 939.436 119.927 933.897 114.388C928.359 108.718 921.304 105.883 912.733 105.883C907.458 105.883 902.777 106.938 898.689 109.048C894.601 111.026 891.238 113.333 888.601 115.971L885.634 103.114C888.535 100.872 892.425 98.6303 897.304 96.3886C902.183 94.015 908.117 92.8282 915.106 92.8282ZM890.579 107.465H874.755V58.6089C875.414 58.3452 876.403 58.0814 877.722 57.8177C879.173 57.4221 880.689 57.2243 882.271 57.2243C885.041 57.2243 887.085 57.8177 888.403 59.0045C889.854 60.0594 890.579 61.8396 890.579 64.3451V107.465ZM984.5 134.564L1000.32 136.937V186.387C999.664 186.651 998.675 186.915 997.357 187.179C996.038 187.574 994.588 187.772 993.005 187.772C990.236 187.772 988.126 187.244 986.676 186.19C985.225 185.003 984.5 183.157 984.5 180.651V134.564ZM1000.32 144.454L984.5 142.278V58.6089C985.159 58.3452 986.148 58.0814 987.467 57.8177C988.917 57.4221 990.368 57.2243 991.818 57.2243C994.719 57.2243 996.829 57.8177 998.148 59.0045C999.599 60.0594 1000.32 61.8396 1000.32 64.3451V144.454ZM1116.45 141.091C1116.45 150.849 1114.6 159.355 1110.91 166.607C1107.22 173.86 1102.01 179.464 1095.29 183.42C1088.56 187.376 1080.65 189.354 1071.55 189.354C1062.45 189.354 1054.47 187.376 1047.62 183.42C1040.89 179.464 1035.68 173.86 1031.99 166.607C1028.3 159.355 1026.45 150.849 1026.45 141.091C1026.45 131.201 1028.3 122.696 1031.99 115.575C1035.81 108.323 1041.09 102.718 1047.81 98.7622C1054.67 94.8062 1062.58 92.8282 1071.55 92.8282C1080.52 92.8282 1088.36 94.8062 1095.09 98.7622C1101.81 102.718 1107.02 108.323 1110.71 115.575C1114.54 122.696 1116.45 131.201 1116.45 141.091ZM1071.55 105.883C1062.72 105.883 1055.66 109.048 1050.39 115.377C1045.24 121.575 1042.67 130.146 1042.67 141.091C1042.67 152.168 1045.18 160.805 1050.19 167.003C1055.33 173.201 1062.45 176.3 1071.55 176.3C1080.52 176.3 1087.51 173.201 1092.52 167.003C1097.66 160.673 1100.23 152.036 1100.23 141.091C1100.23 130.146 1097.66 121.575 1092.52 115.377C1087.51 109.048 1080.52 105.883 1071.55 105.883ZM1178.9 184.014C1171.25 184.014 1164.2 182.563 1157.74 179.662C1151.28 176.629 1146.07 171.75 1142.11 165.025C1138.16 158.3 1136.18 149.399 1136.18 138.322C1136.18 128.3 1138.09 119.927 1141.91 113.202C1145.87 106.476 1151.28 101.4 1158.13 97.971C1164.99 94.5425 1172.84 92.8282 1181.67 92.8282C1187.74 92.8282 1193.28 93.6194 1198.29 95.2018C1203.43 96.6523 1207.72 98.4985 1211.14 100.74C1213.12 102.059 1214.7 103.575 1215.89 105.29C1217.21 106.872 1217.87 108.85 1217.87 111.224V172.344H1202.05V111.421C1199.8 109.971 1196.97 108.718 1193.54 107.663C1190.24 106.476 1186.29 105.883 1181.67 105.883C1172.84 105.883 1165.72 108.586 1160.31 113.993C1154.9 119.399 1152.2 127.443 1152.2 138.124C1152.2 149.992 1154.9 158.432 1160.31 163.443C1165.85 168.454 1172.64 170.959 1180.68 170.959C1186.48 170.959 1191.17 169.97 1194.73 167.992C1198.29 166.014 1201.12 163.838 1203.23 161.465L1204.02 175.508C1202.05 177.618 1198.88 179.596 1194.53 181.442C1190.31 183.157 1185.1 184.014 1178.9 184.014ZM1202.05 189.75V168.981H1217.87V190.739C1217.87 199.442 1215.96 206.431 1212.13 211.706C1208.44 216.98 1203.3 220.804 1196.7 223.178C1190.24 225.552 1182.92 226.738 1174.75 226.738C1168.16 226.738 1162.49 226.013 1157.74 224.563C1152.99 223.112 1149.76 221.925 1148.05 221.002C1144.09 218.761 1142.11 215.925 1142.11 212.497C1142.11 210.651 1142.51 209.068 1143.3 207.75C1144.22 206.563 1145.34 205.64 1146.66 204.981C1149.43 207.09 1153.32 209.002 1158.33 210.717C1163.47 212.563 1168.95 213.486 1174.75 213.486C1183.58 213.486 1190.31 211.574 1194.92 207.75C1199.67 203.926 1202.05 197.926 1202.05 189.75Z" fill="#111827"/>
</svg>
