<svg width="888" height="173" viewBox="0 0 888 173" fill="none" xmlns="http://www.w3.org/2000/svg">
<path d="M40.3345 121.902C49.1695 121.902 55.8288 119.924 60.3122 115.968C64.9275 111.88 67.2352 106.671 67.2352 100.342C67.2352 94.9354 65.455 90.4519 61.8946 86.8915C58.4661 83.3311 52.9936 80.496 45.4772 78.3862L28.2687 73.2434C22.7303 71.5291 17.9172 69.3533 13.8293 66.716C9.74148 63.9468 6.57669 60.5842 4.33496 56.6282C2.2251 52.5404 1.17017 47.7932 1.17017 42.3867C1.17017 32.2329 4.86242 24.321 12.2469 18.6507C19.6315 12.8486 29.4555 9.94753 41.7191 9.94753C48.8398 9.94753 55.1694 10.7387 60.7078 12.3211C66.3781 13.7717 70.7956 15.6837 73.9604 18.0573C77.257 20.4309 78.9054 22.9364 78.9054 25.5737C78.9054 27.288 78.4438 28.8704 77.5208 30.3209C76.5977 31.6395 75.4109 32.6945 73.9604 33.4857C70.6637 30.8483 66.1803 28.5407 60.51 26.5627C54.9716 24.5847 48.9058 23.5957 42.3125 23.5957C34.6642 23.5957 28.5984 25.31 24.1149 28.7385C19.6315 32.0351 17.3897 36.5845 17.3897 42.3867C17.3897 47.002 18.9721 50.7602 22.1369 53.6612C25.4336 56.5623 30.7082 59.0677 37.9609 61.1776L50.0266 64.738C60.4441 67.639 68.6198 71.8588 74.5538 77.3972C80.6196 82.9355 83.6525 90.5838 83.6525 100.342C83.6525 110.759 79.8284 119.199 72.1802 125.66C64.6638 132.122 54.0486 135.352 40.3345 135.352C32.2906 135.352 25.2358 134.495 19.1699 132.781C13.2359 130.935 8.55468 128.693 5.12616 126.056C1.8295 123.287 0.181171 120.583 0.181171 117.946C0.181171 115.704 0.840502 113.858 2.15917 112.408C3.60969 110.825 5.25802 109.704 7.10415 109.045C10.1371 111.946 14.4227 114.847 19.9611 117.748C25.4995 120.517 32.2906 121.902 40.3345 121.902ZM122.987 112.408C120.745 108.188 118.042 102.518 114.877 95.3969C111.712 88.1443 108.416 80.1004 104.987 71.2654C101.69 62.2985 98.5256 53.1997 95.4927 43.969C96.4158 42.6504 97.6026 41.5955 99.0531 40.8043C100.635 40.0131 102.284 39.6175 103.998 39.6175C106.24 39.6175 108.086 40.2109 109.536 41.3977C110.987 42.5845 112.174 44.5624 113.097 47.3316C117.053 58.4084 121.207 69.4192 125.558 80.3641C129.91 91.3091 134.723 102.65 139.998 114.386H140.789C143.558 108.847 146.459 101.924 149.492 93.6167C152.525 85.3091 155.426 76.54 158.195 67.3094C160.964 58.0787 163.272 49.3756 165.118 41.1999C166.041 40.8043 167.03 40.4746 168.085 40.2109C169.272 39.8153 170.525 39.6175 171.843 39.6175C174.085 39.6175 175.931 40.2109 177.382 41.3977C178.832 42.4526 179.557 44.1009 179.557 46.3426C179.557 48.4525 178.964 52.0129 177.777 57.0238C176.59 61.9029 174.942 67.6391 172.832 74.2324C170.854 80.6938 168.481 87.6168 165.712 95.0013C163.074 102.254 160.173 109.441 157.008 116.561C153.975 123.55 150.877 129.88 147.712 135.55C141.646 146.759 136.108 155.33 131.097 161.264C126.086 167.33 121.47 170.363 117.251 170.363C114.218 170.363 111.844 169.572 110.13 167.989C108.547 166.407 107.558 164.561 107.163 162.451C110.064 159.945 113.295 156.583 116.855 152.363C120.547 148.275 124.042 143.792 127.338 138.913C130.767 134.166 133.536 129.616 135.646 125.265C133.404 124.605 131.294 123.418 129.316 121.704C127.47 119.99 125.36 116.891 122.987 112.408ZM273.596 69.4852V92.2321H257.772V70.672C257.772 64.2105 255.86 59.4633 252.036 56.4304C248.343 53.3975 243.398 51.881 237.201 51.881C233.113 51.881 229.157 52.5404 225.333 53.859C221.508 55.1777 218.278 56.6941 215.64 58.4084V92.2321H199.816V59.1996C199.816 56.5623 200.344 54.3206 201.399 52.4744C202.586 50.6283 204.564 48.8481 207.333 47.1338C210.893 44.8921 215.377 42.9801 220.783 41.3977C226.322 39.6834 231.86 38.8263 237.398 38.8263C244.124 38.8263 250.058 39.8812 255.2 41.9911C260.343 43.969 264.167 46.7382 266.673 50.2986C267.464 51.0898 268.123 51.8151 268.651 52.4744C269.178 53.1338 269.706 53.9909 270.233 55.0458C271.156 56.6282 271.947 58.6721 272.607 61.1776C273.266 63.6831 273.596 66.4523 273.596 69.4852ZM331.551 69.8808V92.2321H315.727V70.672C315.727 64.2105 313.881 59.4633 310.189 56.4304C306.496 53.3975 301.551 51.881 295.354 51.881C290.738 51.881 286.255 52.87 281.903 54.848C277.684 56.6941 273.859 59.3974 270.431 62.9578L264.101 51.4854C267.53 48.0569 272.013 45.0899 277.552 42.5844C283.09 40.079 289.42 38.8263 296.54 38.8263C303.661 38.8263 309.793 39.9471 314.936 42.1888C320.21 44.4306 324.298 47.8591 327.199 52.4744C330.1 57.0897 331.551 62.8919 331.551 69.8808ZM199.816 81.7487H215.64V132.385C214.981 132.649 213.992 132.913 212.673 133.177C211.355 133.572 209.904 133.77 208.322 133.77C205.553 133.77 203.443 133.243 201.992 132.188C200.542 131.001 199.816 129.155 199.816 126.649V81.7487ZM257.772 81.7487H273.596V132.385C272.936 132.649 271.881 132.913 270.431 133.177C269.112 133.572 267.728 133.77 266.277 133.77C263.376 133.77 261.2 133.243 259.75 132.188C258.431 131.001 257.772 129.155 257.772 126.649V81.7487ZM315.727 81.7487H331.551V132.385C330.892 132.649 329.837 132.913 328.386 133.177C327.067 133.572 325.683 133.77 324.232 133.77C321.331 133.77 319.155 133.243 317.705 132.188C316.386 131.001 315.727 129.155 315.727 126.649V81.7487ZM374.554 59.3974V46.5404H416.487C416.883 47.0679 417.278 47.925 417.674 49.1118C418.07 50.1668 418.267 51.4195 418.267 52.87C418.267 54.9799 417.74 56.6282 416.685 57.815C415.63 58.8699 414.114 59.3974 412.136 59.3974H374.554ZM377.323 34.0791V57.2216H361.697V33.2879C361.697 25.5078 363.081 19.2441 365.851 14.4969C368.752 9.61787 372.839 6.05748 378.114 3.81576C383.521 1.44217 389.916 0.255369 397.301 0.255369C404.817 0.255369 410.685 1.24436 414.905 3.22236C419.256 5.20035 421.432 7.63988 421.432 10.5409C421.432 11.9915 421.103 13.3101 420.443 14.4969C419.916 15.6837 419.125 16.8046 418.07 17.8595C415.696 16.5409 412.729 15.4859 409.169 14.6947C405.608 13.7717 402.18 13.3101 398.883 13.3101C390.839 13.3101 385.235 14.9585 382.07 18.2551C378.905 21.5518 377.323 26.8264 377.323 34.0791ZM361.697 48.5184H377.521V132.385C376.861 132.649 375.872 132.913 374.554 133.177C373.235 133.572 371.785 133.77 370.202 133.77C367.433 133.77 365.323 133.243 363.873 132.188C362.422 131.001 361.697 129.155 361.697 126.649V48.5184ZM519.173 87.0893C519.173 96.8474 517.327 105.353 513.635 112.605C509.942 119.858 504.734 125.462 498.008 129.418C491.283 133.374 483.371 135.352 474.272 135.352C465.174 135.352 457.196 133.374 450.339 129.418C443.614 125.462 438.405 119.858 434.713 112.605C431.02 105.353 429.174 96.8474 429.174 87.0893C429.174 77.1994 431.02 68.694 434.713 61.5732C438.537 54.3206 443.811 48.7162 450.537 44.7602C457.394 40.8043 465.306 38.8263 474.272 38.8263C483.239 38.8263 491.085 40.8043 497.811 44.7602C504.536 48.7162 509.745 54.3206 513.437 61.5732C517.261 68.694 519.173 77.1994 519.173 87.0893ZM474.272 51.881C465.437 51.881 458.383 55.0458 453.108 61.3754C447.965 67.5731 445.394 76.1444 445.394 87.0893C445.394 98.1661 447.899 106.803 452.91 113.001C458.053 119.199 465.174 122.298 474.272 122.298C483.239 122.298 490.228 119.199 495.239 113.001C500.382 106.671 502.953 98.0342 502.953 87.0893C502.953 76.1444 500.382 67.5731 495.239 61.3754C490.228 55.0458 483.239 51.881 474.272 51.881ZM584.394 38.8263C592.57 38.8263 599.889 40.6065 606.35 44.1668C612.943 47.5954 618.086 52.87 621.778 59.9908C625.602 67.1116 627.514 76.1444 627.514 87.0893C627.514 98.1661 625.536 107.265 621.581 114.386C617.756 121.506 612.416 126.781 605.559 130.21C598.702 133.638 590.724 135.352 581.625 135.352C575.164 135.352 569.296 134.561 564.021 132.979C558.878 131.396 554.658 129.682 551.362 127.836C548.593 125.99 546.68 124.276 545.626 122.693C544.571 121.111 544.043 118.935 544.043 116.166V50.2986H559.867V116.166C561.845 117.616 564.746 119.001 568.57 120.32C572.394 121.638 576.746 122.298 581.625 122.298C590.592 122.298 597.779 119.463 603.185 113.792C608.724 108.122 611.493 99.221 611.493 87.0893C611.493 74.8258 608.724 65.9248 603.185 60.3864C597.647 54.7162 590.592 51.881 582.021 51.881C576.746 51.881 572.065 52.936 567.977 55.0458C563.889 57.0238 560.526 59.3315 557.889 61.9688L554.922 49.1118C557.823 46.8701 561.713 44.6284 566.592 42.3867C571.471 40.0131 577.405 38.8263 584.394 38.8263ZM559.867 53.4634H544.043V4.60696C544.702 4.34322 545.691 4.07949 547.01 3.81576C548.461 3.42016 549.977 3.22236 551.559 3.22236C554.329 3.22236 556.373 3.81576 557.691 5.00255C559.142 6.05749 559.867 7.83768 559.867 10.3431V53.4634ZM653.788 80.562L669.612 82.9355V132.385C668.952 132.649 667.963 132.913 666.645 133.177C665.326 133.572 663.876 133.77 662.293 133.77C659.524 133.77 657.414 133.243 655.964 132.188C654.513 131.001 653.788 129.155 653.788 126.649V80.562ZM669.612 90.4519L653.788 88.2761V4.60696C654.447 4.34322 655.436 4.07949 656.755 3.81576C658.205 3.42016 659.656 3.22236 661.106 3.22236C664.007 3.22236 666.117 3.81576 667.436 5.00255C668.887 6.05749 669.612 7.83768 669.612 10.3431V90.4519ZM785.739 87.0893C785.739 96.8474 783.892 105.353 780.2 112.605C776.508 119.858 771.299 125.462 764.574 129.418C757.849 133.374 749.937 135.352 740.838 135.352C731.739 135.352 723.761 133.374 716.904 129.418C710.179 125.462 704.97 119.858 701.278 112.605C697.586 105.353 695.74 96.8474 695.74 87.0893C695.74 77.1994 697.586 68.694 701.278 61.5732C705.102 54.3206 710.377 48.7162 717.102 44.7602C723.959 40.8043 731.871 38.8263 740.838 38.8263C749.805 38.8263 757.651 40.8043 764.376 44.7602C771.101 48.7162 776.31 54.3206 780.002 61.5732C783.827 68.694 785.739 77.1994 785.739 87.0893ZM740.838 51.881C732.003 51.881 724.948 55.0458 719.674 61.3754C714.531 67.5731 711.959 76.1444 711.959 87.0893C711.959 98.1661 714.465 106.803 719.476 113.001C724.619 119.199 731.739 122.298 740.838 122.298C749.805 122.298 756.794 119.199 761.805 113.001C766.948 106.671 769.519 98.0342 769.519 87.0893C769.519 76.1444 766.948 67.5731 761.805 61.3754C756.794 55.0458 749.805 51.881 740.838 51.881ZM848.191 130.012C840.542 130.012 833.488 128.561 827.026 125.66C820.565 122.627 815.356 117.748 811.4 111.023C807.444 104.298 805.466 95.3969 805.466 84.3201C805.466 74.2983 807.378 65.9248 811.202 59.1996C815.158 52.4744 820.565 47.3976 827.422 43.969C834.279 40.5405 842.125 38.8263 850.96 38.8263C857.026 38.8263 862.564 39.6175 867.575 41.1999C872.718 42.6504 877.003 44.4965 880.432 46.7382C882.41 48.0569 883.992 49.5734 885.179 51.2876C886.498 52.87 887.157 54.848 887.157 57.2216V118.342H871.333V57.4194C869.091 55.9689 866.256 54.7162 862.828 53.6612C859.531 52.4744 855.575 51.881 850.96 51.881C842.125 51.881 835.004 54.5843 829.598 59.9908C824.191 65.3973 821.488 73.4412 821.488 84.1223C821.488 95.9903 824.191 104.43 829.598 109.441C835.136 114.452 841.927 116.957 849.971 116.957C855.773 116.957 860.454 115.968 864.015 113.99C867.575 112.012 870.41 109.836 872.52 107.463L873.311 121.506C871.333 123.616 868.168 125.594 863.817 127.44C859.597 129.155 854.388 130.012 848.191 130.012ZM871.333 135.748V114.979H887.157V136.737C887.157 145.44 885.245 152.429 881.421 157.704C877.729 162.978 872.586 166.803 865.993 169.176C859.531 171.55 852.213 172.736 844.037 172.736C837.444 172.736 831.773 172.011 827.026 170.561C822.279 169.11 819.048 167.923 817.334 167C813.378 164.759 811.4 161.923 811.4 158.495C811.4 156.649 811.796 155.066 812.587 153.748C813.51 152.561 814.631 151.638 815.949 150.979C818.719 153.088 822.609 155 827.62 156.715C832.762 158.561 838.235 159.484 844.037 159.484C852.872 159.484 859.597 157.572 864.212 153.748C868.96 149.924 871.333 143.924 871.333 135.748Z" fill="#F9FAFB"/>
</svg>
