<svg width="1297" height="257" viewBox="0 0 1297 257" fill="none" xmlns="http://www.w3.org/2000/svg">
<circle cx="128.712" cy="128.072" r="128" fill="#F9FAFB"/>
<path d="M65.3763 172.327C72.3744 172.939 77.8658 172.14 81.8505 169.93C85.8966 167.726 88.422 164.749 89.4268 160.999C89.9531 159.035 90.078 157.279 89.8015 155.732C89.6023 154.13 88.9494 152.581 87.843 151.083C86.8139 149.531 85.2936 147.936 83.2823 146.298C81.3484 144.606 78.8791 142.684 75.8744 140.533C73.2676 138.538 70.4926 136.468 67.5493 134.322C64.622 132.117 62.0121 129.665 59.7194 126.967C57.5041 124.214 55.8528 121.115 54.7656 117.67C53.7398 114.23 53.8409 110.218 55.069 105.635C56.1535 101.587 57.9324 97.9966 60.4056 94.8626C62.8788 91.7285 65.8304 89.1541 69.2602 87.1393C72.7674 85.0704 76.6528 83.5828 80.9165 82.6766C85.2415 81.7758 89.7675 81.5321 94.4942 81.9456C98.0547 82.2571 101.495 83.015 104.817 84.2194C108.215 85.3695 111.126 86.9339 113.548 88.9124C115.971 90.891 117.73 93.2378 118.824 95.953C119.918 98.6682 120.011 101.722 119.102 105.115C118.751 106.424 118.163 107.683 117.337 108.89C116.572 110.102 115.594 111.174 114.402 112.105C113.21 113.036 111.851 113.77 110.325 114.307C108.876 114.789 107.293 114.955 105.574 114.805C102.014 114.493 99.5984 113.307 98.3285 111.247C97.0587 109.187 96.7906 106.787 97.5242 104.049C97.9867 102.323 98.623 100.886 99.4331 99.739C100.259 98.532 101.175 97.5766 102.18 96.8726C103.263 96.1145 104.374 95.6025 105.513 95.3367C106.73 95.0167 107.89 94.9051 108.995 95.0017L109.824 95.0742L109.872 94.8957C109.513 93.8896 108.862 92.9189 107.919 91.9836C106.992 90.9887 105.818 90.0941 104.398 89.2997C102.993 88.4458 101.364 87.7246 99.5117 87.1361C97.6589 86.5476 95.6276 86.1567 93.4177 85.9633C90.1642 85.6787 87.2902 85.8537 84.7956 86.4883C82.301 87.1228 80.1416 88.0304 78.3175 89.211C76.5706 90.3374 75.1523 91.6449 74.0623 93.1334C72.9724 94.6218 72.2361 96.0803 71.8533 97.5089C71.3908 99.235 71.2683 100.747 71.4859 102.045C71.7034 103.344 72.312 104.707 73.3117 106.134C74.3886 107.508 75.9248 109.043 77.9202 110.741C79.9769 112.444 82.5678 114.498 85.6928 116.903C88.7747 119 92.009 121.233 95.3955 123.6C98.8433 125.973 101.866 128.644 104.463 131.612C107.076 134.521 108.995 137.796 110.218 141.436C111.519 145.022 111.555 149.107 110.327 153.69C109.291 157.559 107.574 161.033 105.178 164.113C102.844 167.198 99.7695 169.762 95.9554 171.804C92.2027 173.851 87.7034 175.285 82.4576 176.106C77.2571 176.991 71.3114 177.141 64.6202 176.555C61.4281 176.276 58.1248 175.591 54.7103 174.5C51.2958 173.41 48.2772 171.897 45.6545 169.962C43.0476 167.967 41.0902 165.542 39.7821 162.686C38.49 159.771 38.3703 156.349 39.4229 152.421C39.8694 150.754 40.5763 149.171 41.5434 147.672C42.5106 146.173 43.6447 144.871 44.9459 143.766C46.3244 142.608 47.846 141.736 49.5106 141.15C51.1753 140.565 52.9591 140.356 54.8621 140.522C56.5196 140.667 57.9131 141.094 59.0427 141.802C60.1883 142.45 61.0632 143.288 61.6675 144.316C62.349 145.289 62.7679 146.422 62.9241 147.715C63.0802 149.008 62.9976 150.371 62.6762 151.805C62.2297 153.472 61.524 154.933 60.5593 156.189C59.6105 157.385 58.5334 158.357 57.3279 159.104C56.1224 159.852 54.8113 160.407 53.3946 160.77C52.0553 161.08 50.7717 161.18 49.544 161.073C49.2984 161.052 49.0222 161.027 48.7152 161.001C48.4697 160.979 48.2321 160.928 48.0025 160.847L47.9547 161.025C48.1882 162.264 48.7059 163.497 49.5078 164.725C50.3098 165.953 51.4198 167.085 52.8381 168.123C54.3177 169.166 56.0827 170.082 58.1331 170.871C60.2609 171.605 62.6753 172.09 65.3763 172.327Z" fill="#111827"/>
<path d="M144.775 57.8356L145.756 54.175L165.527 53.8945L179.396 51.727L180.359 54.4612L167.106 103.924L167.474 103.956C172.504 98.5478 177.271 94.9443 181.774 93.1452C186.354 91.292 191.437 90.6098 197.024 91.0985C198.681 91.2435 200.299 91.5374 201.876 91.98C203.454 92.4226 205.167 93.1816 207.015 94.257C208.879 95.2729 210.517 96.5433 211.931 98.068C213.405 99.5981 214.706 101.661 215.832 104.257C216.958 106.853 217.713 109.783 218.095 113.045C218.539 116.312 218.499 120.329 217.976 125.096C217.53 129.808 216.558 134.962 215.058 140.557C213.272 147.223 210.877 153.349 207.872 158.934C204.884 164.46 201.311 169.356 197.152 173.622C193.071 177.833 188.293 181.009 182.819 183.15C177.406 185.296 171.631 186.1 165.492 185.563C162.054 185.262 158.732 184.18 155.525 182.315C152.302 180.51 149.886 177.802 148.279 174.189L127.389 180.402L123.614 180.072L156.101 58.8265L144.775 57.8356ZM151.556 161.957C150.424 166.183 150.907 170.124 153.006 173.78C155.105 177.436 158.118 179.436 162.047 179.779C164.441 179.989 166.733 179.641 168.923 178.736C171.113 177.831 173.038 176.629 174.696 175.129C176.432 173.575 178.08 171.527 179.641 168.983C181.202 166.439 182.501 164.055 183.537 161.831C184.65 159.553 185.768 156.787 186.89 153.535C188.029 150.223 188.916 147.499 189.552 145.361C190.187 143.224 190.912 140.637 191.725 137.602C194.389 127.662 195.796 119.713 195.947 113.757C196.175 107.746 195.464 103.602 193.812 101.326C192.16 99.0491 189.585 97.7578 186.086 97.4516C181.605 97.0596 177.03 99.1265 172.362 103.652C167.71 108.119 164.602 113.268 163.039 119.101L151.556 161.957Z" fill="#111827"/>
<path d="M371.046 175.693C379.881 175.693 386.541 173.715 391.024 169.759C395.64 165.671 397.947 160.462 397.947 154.133C397.947 148.726 396.167 144.243 392.607 140.683C389.178 137.122 383.706 134.287 376.189 132.177L358.981 127.034C353.442 125.32 348.629 123.144 344.541 120.507C340.453 117.738 337.289 114.375 335.047 110.419C332.937 106.331 331.882 101.584 331.882 96.1777C331.882 86.024 335.574 78.112 342.959 72.4417C350.343 66.6396 360.167 63.7386 372.431 63.7386C379.552 63.7386 385.881 64.5297 391.42 66.1121C397.09 67.5627 401.508 69.4747 404.672 71.8483C407.969 74.2219 409.617 76.7274 409.617 79.3647C409.617 81.079 409.156 82.6614 408.233 84.1119C407.31 85.4306 406.123 86.4855 404.672 87.2767C401.376 84.6394 396.892 82.3317 391.222 80.3537C385.684 78.3757 379.618 77.3867 373.024 77.3867C365.376 77.3867 359.31 79.101 354.827 82.5295C350.343 85.8262 348.102 90.3755 348.102 96.1777C348.102 100.793 349.684 104.551 352.849 107.452C356.146 110.353 361.42 112.859 368.673 114.969L380.739 118.529C391.156 121.43 399.332 125.65 405.266 131.188C411.332 136.727 414.365 144.375 414.365 154.133C414.365 164.55 410.54 172.99 402.892 179.451C395.376 185.913 384.761 189.143 371.046 189.143C363.003 189.143 355.948 188.286 349.882 186.572C343.948 184.726 339.267 182.484 335.838 179.847C332.541 177.078 330.893 174.374 330.893 171.737C330.893 169.495 331.552 167.649 332.871 166.199C334.322 164.616 335.97 163.495 337.816 162.836C340.849 165.737 345.135 168.638 350.673 171.539C356.211 174.308 363.003 175.693 371.046 175.693ZM453.699 166.199C451.457 161.979 448.754 156.309 445.589 149.188C442.424 141.935 439.128 133.891 435.699 125.056C432.402 116.089 429.238 106.991 426.205 97.7601C427.128 96.4414 428.315 95.3865 429.765 94.5953C431.347 93.8041 432.996 93.4085 434.71 93.4085C436.952 93.4085 438.798 94.0019 440.248 95.1887C441.699 96.3755 442.886 98.3535 443.809 101.123C447.765 112.199 451.919 123.21 456.27 134.155C460.622 145.1 465.435 156.441 470.71 168.177H471.501C474.27 162.638 477.171 155.715 480.204 147.408C483.237 139.1 486.138 130.331 488.907 121.1C491.676 111.87 493.984 103.167 495.83 94.9909C496.753 94.5953 497.742 94.2656 498.797 94.0019C499.984 93.6063 501.237 93.4085 502.555 93.4085C504.797 93.4085 506.643 94.0019 508.094 95.1887C509.544 96.2436 510.269 97.8919 510.269 100.134C510.269 102.244 509.676 105.804 508.489 110.815C507.302 115.694 505.654 121.43 503.544 128.023C501.566 134.485 499.193 141.408 496.423 148.792C493.786 156.045 490.885 163.232 487.72 170.352C484.687 177.341 481.589 183.671 478.424 189.341C472.358 200.55 466.819 209.121 461.809 215.055C456.798 221.121 452.182 224.154 447.963 224.154C444.93 224.154 442.556 223.363 440.842 221.78C439.259 220.198 438.27 218.352 437.875 216.242C440.776 213.736 444.007 210.374 447.567 206.154C451.259 202.066 454.754 197.583 458.05 192.704C461.479 187.957 464.248 183.407 466.358 179.056C464.116 178.396 462.006 177.21 460.028 175.495C458.182 173.781 456.072 170.682 453.699 166.199ZM604.308 123.276V146.023H588.484V124.463C588.484 118.002 586.572 113.254 582.747 110.221C579.055 107.189 574.11 105.672 567.913 105.672C563.825 105.672 559.869 106.331 556.045 107.65C552.22 108.969 548.99 110.485 546.352 112.199V146.023H530.528V112.991C530.528 110.353 531.056 108.112 532.111 106.265C533.298 104.419 535.276 102.639 538.045 100.925C541.605 98.6831 546.089 96.7711 551.495 95.1887C557.034 93.4744 562.572 92.6173 568.11 92.6173C574.836 92.6173 580.769 93.6722 585.912 95.7821C591.055 97.7601 594.879 100.529 597.385 104.09C598.176 104.881 598.835 105.606 599.363 106.265C599.89 106.925 600.418 107.782 600.945 108.837C601.868 110.419 602.659 112.463 603.319 114.969C603.978 117.474 604.308 120.243 604.308 123.276ZM662.263 123.672V146.023H646.439V124.463C646.439 118.002 644.593 113.254 640.901 110.221C637.208 107.189 632.263 105.672 626.066 105.672C621.45 105.672 616.967 106.661 612.615 108.639C608.395 110.485 604.571 113.188 601.143 116.749L594.813 105.276C598.242 101.848 602.725 98.8809 608.264 96.3755C613.802 93.87 620.132 92.6173 627.252 92.6173C634.373 92.6173 640.505 93.7381 645.648 95.9799C650.922 98.2216 655.01 101.65 657.911 106.265C660.812 110.881 662.263 116.683 662.263 123.672ZM530.528 135.54H546.352V186.176C545.693 186.44 544.704 186.704 543.385 186.968C542.067 187.363 540.616 187.561 539.034 187.561C536.265 187.561 534.155 187.034 532.704 185.979C531.254 184.792 530.528 182.946 530.528 180.44V135.54ZM588.484 135.54H604.308V186.176C603.648 186.44 602.593 186.704 601.143 186.968C599.824 187.363 598.44 187.561 596.989 187.561C594.088 187.561 591.912 187.034 590.462 185.979C589.143 184.792 588.484 182.946 588.484 180.44V135.54ZM646.439 135.54H662.263V186.176C661.604 186.44 660.549 186.704 659.098 186.968C657.779 187.363 656.395 187.561 654.944 187.561C652.043 187.561 649.867 187.034 648.417 185.979C647.098 184.792 646.439 182.946 646.439 180.44V135.54ZM705.266 113.188V100.331H747.199C747.595 100.859 747.99 101.716 748.386 102.903C748.782 103.958 748.979 105.211 748.979 106.661C748.979 108.771 748.452 110.419 747.397 111.606C746.342 112.661 744.826 113.188 742.848 113.188H705.266ZM708.035 87.8701V111.013H692.409V87.0789C692.409 79.2988 693.793 73.0351 696.563 68.2879C699.464 63.4089 703.551 59.8485 708.826 57.6068C714.233 55.2332 720.628 54.0464 728.013 54.0464C735.529 54.0464 741.397 55.0354 745.617 57.0134C749.968 58.9914 752.144 61.4309 752.144 64.332C752.144 65.7825 751.814 67.1011 751.155 68.2879C750.628 69.4747 749.836 70.5956 748.782 71.6505C746.408 70.3319 743.441 69.2769 739.881 68.4857C736.32 67.5627 732.892 67.1011 729.595 67.1011C721.551 67.1011 715.947 68.7495 712.782 72.0461C709.617 75.3428 708.035 80.6174 708.035 87.8701ZM692.409 102.309H708.233V186.176C707.573 186.44 706.584 186.704 705.266 186.968C703.947 187.363 702.496 187.561 700.914 187.561C698.145 187.561 696.035 187.034 694.585 185.979C693.134 184.792 692.409 182.946 692.409 180.44V102.309ZM849.885 140.88C849.885 150.638 848.039 159.144 844.347 166.396C840.654 173.649 835.446 179.253 828.72 183.209C821.995 187.165 814.083 189.143 804.984 189.143C795.886 189.143 787.908 187.165 781.051 183.209C774.326 179.253 769.117 173.649 765.425 166.396C761.732 159.144 759.886 150.638 759.886 140.88C759.886 130.99 761.732 122.485 765.425 115.364C769.249 108.112 774.523 102.507 781.249 98.5513C788.106 94.5953 796.018 92.6173 804.984 92.6173C813.951 92.6173 821.797 94.5953 828.523 98.5513C835.248 102.507 840.456 108.112 844.149 115.364C847.973 122.485 849.885 130.99 849.885 140.88ZM804.984 105.672C796.149 105.672 789.095 108.837 783.82 115.166C778.677 121.364 776.106 129.935 776.106 140.88C776.106 151.957 778.611 160.594 783.622 166.792C788.765 172.99 795.886 176.089 804.984 176.089C813.951 176.089 820.94 172.99 825.951 166.792C831.094 160.462 833.665 151.825 833.665 140.88C833.665 129.935 831.094 121.364 825.951 115.166C820.94 108.837 813.951 105.672 804.984 105.672ZM915.106 92.6173C923.282 92.6173 930.6 94.3975 937.062 97.9579C943.655 101.386 948.798 106.661 952.49 113.782C956.314 120.903 958.226 129.935 958.226 140.88C958.226 151.957 956.248 161.056 952.292 168.177C948.468 175.297 943.128 180.572 936.271 184.001C929.414 187.429 921.436 189.143 912.337 189.143C905.876 189.143 900.007 188.352 894.733 186.77C889.59 185.187 885.37 183.473 882.074 181.627C879.304 179.781 877.392 178.067 876.337 176.484C875.283 174.902 874.755 172.726 874.755 169.957V104.09H890.579V169.957C892.557 171.407 895.458 172.792 899.282 174.111C903.106 175.429 907.458 176.089 912.337 176.089C921.304 176.089 928.491 173.254 933.897 167.583C939.436 161.913 942.205 153.012 942.205 140.88C942.205 128.617 939.436 119.716 933.897 114.177C928.359 108.507 921.304 105.672 912.733 105.672C907.458 105.672 902.777 106.727 898.689 108.837C894.601 110.815 891.238 113.122 888.601 115.76L885.634 102.903C888.535 100.661 892.425 98.4194 897.304 96.1777C902.183 93.8041 908.117 92.6173 915.106 92.6173ZM890.579 107.254H874.755V58.398C875.414 58.1342 876.403 57.8705 877.722 57.6068C879.173 57.2112 880.689 57.0134 882.271 57.0134C885.041 57.0134 887.085 57.6068 888.403 58.7936C889.854 59.8485 890.579 61.6287 890.579 64.1342V107.254ZM984.5 134.353L1000.32 136.727V186.176C999.664 186.44 998.675 186.704 997.357 186.968C996.038 187.363 994.588 187.561 993.005 187.561C990.236 187.561 988.126 187.034 986.676 185.979C985.225 184.792 984.5 182.946 984.5 180.44V134.353ZM1000.32 144.243L984.5 142.067V58.398C985.159 58.1342 986.148 57.8705 987.467 57.6068C988.917 57.2112 990.368 57.0134 991.818 57.0134C994.719 57.0134 996.829 57.6068 998.148 58.7936C999.599 59.8485 1000.32 61.6287 1000.32 64.1342V144.243ZM1116.45 140.88C1116.45 150.638 1114.6 159.144 1110.91 166.396C1107.22 173.649 1102.01 179.253 1095.29 183.209C1088.56 187.165 1080.65 189.143 1071.55 189.143C1062.45 189.143 1054.47 187.165 1047.62 183.209C1040.89 179.253 1035.68 173.649 1031.99 166.396C1028.3 159.144 1026.45 150.638 1026.45 140.88C1026.45 130.99 1028.3 122.485 1031.99 115.364C1035.81 108.112 1041.09 102.507 1047.81 98.5513C1054.67 94.5953 1062.58 92.6173 1071.55 92.6173C1080.52 92.6173 1088.36 94.5953 1095.09 98.5513C1101.81 102.507 1107.02 108.112 1110.71 115.364C1114.54 122.485 1116.45 130.99 1116.45 140.88ZM1071.55 105.672C1062.72 105.672 1055.66 108.837 1050.39 115.166C1045.24 121.364 1042.67 129.935 1042.67 140.88C1042.67 151.957 1045.18 160.594 1050.19 166.792C1055.33 172.99 1062.45 176.089 1071.55 176.089C1080.52 176.089 1087.51 172.99 1092.52 166.792C1097.66 160.462 1100.23 151.825 1100.23 140.88C1100.23 129.935 1097.66 121.364 1092.52 115.166C1087.51 108.837 1080.52 105.672 1071.55 105.672ZM1178.9 183.803C1171.25 183.803 1164.2 182.352 1157.74 179.451C1151.28 176.418 1146.07 171.539 1142.11 164.814C1138.16 158.089 1136.18 149.188 1136.18 138.111C1136.18 128.089 1138.09 119.716 1141.91 112.991C1145.87 106.265 1151.28 101.189 1158.13 97.7601C1164.99 94.3315 1172.84 92.6173 1181.67 92.6173C1187.74 92.6173 1193.28 93.4085 1198.29 94.9909C1203.43 96.4414 1207.72 98.2875 1211.14 100.529C1213.12 101.848 1214.7 103.364 1215.89 105.079C1217.21 106.661 1217.87 108.639 1217.87 111.013V172.133H1202.05V111.21C1199.8 109.76 1196.97 108.507 1193.54 107.452C1190.24 106.265 1186.29 105.672 1181.67 105.672C1172.84 105.672 1165.72 108.375 1160.31 113.782C1154.9 119.188 1152.2 127.232 1152.2 137.913C1152.2 149.781 1154.9 158.221 1160.31 163.232C1165.85 168.243 1172.64 170.748 1180.68 170.748C1186.48 170.748 1191.17 169.759 1194.73 167.781C1198.29 165.803 1201.12 163.627 1203.23 161.254L1204.02 175.297C1202.05 177.407 1198.88 179.385 1194.53 181.231C1190.31 182.946 1185.1 183.803 1178.9 183.803ZM1202.05 189.539V168.77H1217.87V190.528C1217.87 199.231 1215.96 206.22 1212.13 211.495C1208.44 216.769 1203.3 220.594 1196.7 222.967C1190.24 225.341 1182.92 226.528 1174.75 226.528C1168.16 226.528 1162.49 225.802 1157.74 224.352C1152.99 222.901 1149.76 221.714 1148.05 220.791C1144.09 218.55 1142.11 215.714 1142.11 212.286C1142.11 210.44 1142.51 208.857 1143.3 207.539C1144.22 206.352 1145.34 205.429 1146.66 204.77C1149.43 206.879 1153.32 208.791 1158.33 210.506C1163.47 212.352 1168.95 213.275 1174.75 213.275C1183.58 213.275 1190.31 211.363 1194.92 207.539C1199.67 203.715 1202.05 197.715 1202.05 189.539Z" fill="#F9FAFB"/>
</svg>
